<svg xmlns="http://www.w3.org/2000/svg" height="48" width="48">
  <path
     fill="#d6e6ff"
     d="m 24,31.74 10.379999,-10.38 -2.58,-2.519999 L 24,26.64 16.2,18.840001 13.620001,21.36 Z M 24,48 Q 19.08,48 14.7,46.11 10.32,44.22 7.0499998,40.95 3.78,37.68 1.89,33.3 0,28.92 0,24 0,19.02 1.89,14.64 3.78,10.260001 7.0499998,7.0199999 10.32,3.78 14.7,1.8899999 19.08,0 24,0 28.98,0 33.36,1.8899999 37.739999,3.78 40.979999,7.0199999 44.22,10.260001 46.109999,14.64 48,19.02 48,24 q 0,4.92 -1.890001,9.3 -1.889999,4.38 -5.13,7.65 -3.24,3.27 -7.619999,5.16 Q 28.98,48 24,48 Z m 0,-3.6 q 8.52,0 14.46,-5.97 5.94,-5.97 5.94,-14.43 0,-8.52 -5.94,-14.4600001 -5.94,-5.94 -14.46,-5.94 -8.46,0 -14.4300001,5.94 Q 3.6000001,15.48 3.6000001,24 q 0,8.46 5.9699998,14.43 Q 15.54,44.4 24,44.4 Z M 24,24 Z"
     id="path2"
     style="stroke-width:1.20001" />
</svg>
