<?xml version="1.0" standalone="no"?>
<!DOCTYPE svg PUBLIC "-//W3C//DTD SVG 20010904//EN"
 "http://www.w3.org/TR/2001/REC-SVG-20010904/DTD/svg10.dtd">
<svg version="1.0" xmlns="http://www.w3.org/2000/svg"
 width="1100.000000pt" height="1100.000000pt" viewBox="0 0 1100.000000 1100.000000"
 preserveAspectRatio="xMidYMid meet">
<metadata>
Created by potrace 1.14, written by Peter Selinger 2001-2017
</metadata>
<g transform="translate(0.000000,1100.000000) scale(0.100000,-0.100000)"
fill="#000000" stroke="none">
<path d="M3799 10066 c-6 -13 -21 -28 -34 -34 -20 -9 -23 -18 -23 -69 -1 -78
-4 -91 -30 -109 -25 -17 -62 -85 -66 -119 -1 -13 -10 -30 -19 -40 -9 -9 -20
-27 -23 -41 -3 -13 -10 -24 -15 -24 -5 0 -9 -11 -9 -24 0 -14 -5 -28 -11 -31
-6 -4 -8 -13 -5 -20 6 -15 -27 -48 -38 -38 -4 4 -4 0 0 -10 3 -9 2 -17 -4 -17
-9 0 -37 -55 -37 -73 0 -4 -6 -11 -13 -16 -8 -5 -13 -12 -13 -17 1 -18 -11
-44 -20 -44 -5 0 -9 -19 -7 -42 1 -26 -3 -43 -10 -46 -7 -2 -12 -10 -12 -18 0
-8 -9 -31 -19 -52 -10 -20 -20 -41 -20 -47 -1 -5 -4 -19 -6 -30 -3 -11 -7 -36
-10 -55 -3 -19 -7 -39 -9 -45 -2 -5 -6 -23 -10 -40 -5 -16 -19 -52 -31 -80
-13 -27 -35 -86 -49 -130 -23 -75 -30 -109 -41 -201 -10 -77 -17 -119 -21
-126 -2 -4 -7 -33 -9 -65 -6 -68 -13 -92 -30 -110 -7 -7 -16 -32 -20 -55 -4
-24 -10 -47 -13 -53 -7 -11 -11 -27 -17 -68 -3 -15 -10 -38 -17 -50 -6 -12
-13 -29 -14 -37 -4 -24 -12 -59 -30 -119 -9 -31 -17 -63 -19 -71 -2 -8 -10
-35 -19 -59 -8 -25 -13 -48 -10 -53 3 -4 0 -8 -5 -8 -6 0 -11 -9 -11 -19 0
-11 -4 -23 -10 -26 -17 -10 -42 -108 -45 -173 -1 -35 -4 -65 -6 -67 -2 -2 -2
-48 1 -102 4 -70 2 -106 -7 -125 -7 -15 -13 -30 -13 -33 1 -3 -10 -20 -24 -36
-15 -17 -26 -38 -26 -47 0 -10 -10 -22 -22 -27 -21 -10 -52 -51 -64 -87 -4
-10 -10 -18 -15 -18 -5 0 -9 -5 -9 -11 0 -6 -15 -37 -34 -68 -35 -58 -69 -155
-58 -166 4 -3 1 -10 -6 -14 -7 -4 -17 -34 -23 -67 -6 -32 -19 -77 -29 -99 -10
-22 -20 -49 -22 -60 -2 -11 -6 -22 -9 -25 -10 -9 -68 -140 -62 -140 3 0 0 -6
-6 -14 -7 -8 -20 -43 -30 -79 -11 -35 -27 -77 -37 -93 -10 -15 -17 -38 -16
-51 2 -13 -2 -23 -9 -23 -7 0 -10 -3 -6 -6 3 -3 -8 -37 -24 -74 -16 -38 -29
-76 -29 -85 0 -9 -13 -24 -30 -33 -18 -10 -30 -25 -30 -37 0 -12 -5 -26 -12
-33 -9 -9 -6 -12 14 -12 24 0 26 -3 21 -32 -7 -47 -21 -78 -38 -84 -10 -4 -13
-14 -9 -30 4 -16 1 -26 -9 -30 -8 -3 -13 -13 -10 -23 3 -11 -9 -50 -25 -87
-17 -38 -37 -97 -45 -130 -12 -52 -12 -64 0 -80 9 -11 12 -31 9 -49 -3 -16 -9
-50 -12 -75 -9 -74 -12 -89 -20 -101 -4 -7 -9 -26 -10 -43 -2 -17 -6 -45 -9
-62 -3 -21 1 -36 11 -45 10 -8 15 -28 14 -63 -2 -45 2 -90 15 -176 2 -14 6
-46 9 -72 3 -27 7 -52 10 -57 4 -5 8 -42 10 -83 6 -101 25 -198 44 -228 9 -14
17 -27 17 -30 0 -3 3 -9 7 -15 3 -5 9 -32 13 -58 4 -26 13 -54 20 -61 19 -19
7 -92 -19 -121 -44 -49 -65 -83 -71 -116 -3 -18 -11 -39 -17 -46 -5 -7 -8 -19
-5 -28 4 -8 2 -17 -3 -20 -19 -11 -52 -98 -47 -122 3 -18 -8 -36 -51 -78 -48
-49 -54 -59 -48 -86 7 -34 -12 -87 -43 -121 -12 -12 -21 -32 -21 -46 0 -18 -4
-22 -18 -18 -21 7 -46 -31 -56 -86 -4 -21 -11 -38 -17 -38 -6 0 -8 -4 -5 -8 3
-5 -8 -25 -24 -44 -19 -23 -32 -52 -35 -79 -3 -23 -9 -49 -14 -57 -5 -8 -6
-23 -4 -32 3 -10 -2 -31 -11 -47 -10 -20 -14 -51 -12 -94 1 -35 -1 -71 -5 -79
-12 -25 -17 -108 -7 -118 11 -11 -6 -53 -39 -98 -17 -23 -22 -39 -17 -65 11
-73 12 -93 2 -118 -6 -14 -12 -51 -15 -81 -9 -123 -11 -135 -37 -205 -8 -23
-10 -42 -5 -46 6 -3 5 -26 -1 -58 -5 -29 -7 -63 -4 -76 3 -13 1 -26 -4 -29
-10 -6 -8 -35 4 -96 3 -14 6 -32 6 -40 0 -8 6 -29 14 -47 9 -20 12 -43 7 -60
-4 -15 -6 -36 -4 -47 2 -11 -2 -16 -8 -12 -6 4 -11 0 -11 -8 0 -8 5 -18 10
-21 6 -4 8 -11 5 -16 -4 -5 0 -18 9 -30 8 -12 12 -31 10 -44 -6 -36 -33 -95
-43 -95 -12 0 -5 -58 8 -74 7 -8 7 -25 1 -47 -15 -57 -21 -147 -11 -153 5 -3
7 -15 4 -26 -3 -11 -1 -26 4 -33 5 -6 10 -39 11 -72 0 -34 6 -74 12 -90 12
-31 5 -79 -15 -109 -15 -21 -11 -58 12 -92 8 -13 13 -24 10 -24 -3 0 -2 -13 3
-30 5 -18 5 -32 -1 -35 -13 -8 -11 -62 2 -71 6 -3 9 -25 6 -50 -2 -25 0 -47 5
-50 5 -3 6 -27 2 -52 -11 -81 -11 -97 -1 -104 6 -3 11 -33 11 -65 l1 -58 2632
-2 2631 -2 6 62 c6 51 8 119 6 182 -1 46 11 139 18 144 5 3 7 15 5 26 -11 53
-8 103 9 137 22 45 22 60 2 99 -19 38 -24 80 -10 98 6 8 11 45 12 83 0 38 5
73 10 76 5 4 10 21 10 37 1 17 5 46 9 65 4 19 8 53 9 75 1 22 10 58 20 80 21
45 28 95 13 95 -5 0 -4 7 4 16 7 8 13 36 15 62 1 26 6 62 12 79 6 18 7 35 3
37 -9 6 -7 99 2 133 3 13 2 23 -2 23 -4 0 -6 13 -3 30 2 16 8 30 13 30 5 0 6
15 3 33 -9 45 -5 96 9 121 17 31 20 72 6 98 -18 33 -22 88 -9 113 7 13 10 48
8 84 -2 35 1 62 7 64 9 3 13 29 16 97 1 30 -11 131 -16 140 -3 4 1 21 7 37 9
24 8 38 -3 64 -17 43 -19 58 -9 64 5 3 6 17 4 31 -9 51 -7 67 6 59 14 -9 13
58 -2 73 -8 8 -9 15 -1 23 11 11 6 59 -7 59 -4 0 -10 9 -13 20 -3 11 -1 20 4
20 11 0 12 67 1 74 -4 2 -7 37 -7 77 2 89 -9 155 -30 176 -10 9 -13 22 -9 32
13 31 1 78 -26 103 -20 19 -20 19 35 70 30 28 55 56 55 63 0 8 3 15 8 17 4 2
18 30 31 63 14 33 31 76 39 95 9 19 16 42 17 50 5 32 79 172 94 177 25 9 91
84 91 105 0 10 5 18 10 18 6 0 10 5 10 10 0 6 17 27 38 48 22 21 46 58 56 87
10 28 22 59 27 70 4 11 20 46 33 78 14 32 28 73 32 92 3 19 10 35 14 35 4 0 7
13 8 28 1 44 5 55 35 80 15 13 27 28 27 34 0 5 10 24 23 41 12 18 22 47 23 67
0 19 8 50 18 69 19 36 27 67 31 116 1 17 7 50 14 74 7 23 10 45 8 48 -3 2 4
27 15 55 23 60 34 163 20 181 -12 15 -9 51 6 70 7 7 10 16 7 18 -2 3 1 27 8
54 7 28 12 61 11 75 -1 14 2 30 7 36 9 11 17 45 18 77 1 10 6 15 11 12 6 -3
10 1 10 9 0 9 7 16 14 16 18 0 70 66 62 79 -3 5 1 11 9 15 8 3 15 12 15 21 0
8 5 15 10 15 6 0 10 4 10 10 0 19 69 105 100 125 27 18 38 34 46 70 8 32 48
134 63 160 10 17 24 46 31 65 8 19 22 46 32 59 10 13 18 31 18 41 0 10 16 48
35 86 19 37 35 75 35 84 0 9 9 26 20 38 11 12 21 33 22 47 1 14 7 25 13 25 5
0 21 16 34 35 13 19 38 50 56 69 41 44 75 98 75 120 0 9 10 27 23 40 12 12 29
35 37 51 8 16 23 37 33 47 9 10 17 23 17 29 0 6 12 26 28 44 46 56 112 152
112 164 0 7 20 32 45 58 25 25 45 51 45 59 0 8 5 14 10 14 6 0 10 5 10 10 0
20 75 130 92 136 10 3 21 16 24 30 3 13 11 21 17 17 6 -4 8 0 4 9 -3 10 4 24
19 37 20 17 30 41 23 54 -3 3 60 118 72 133 6 7 8 17 5 22 -3 5 4 27 15 48 11
21 22 49 23 62 2 12 10 30 19 40 9 10 17 35 18 57 1 22 5 45 8 50 3 6 7 30 9
55 2 24 8 48 15 52 9 6 9 10 -2 17 -7 5 -9 10 -3 12 17 6 -42 67 -68 71 -14 2
-31 7 -38 11 -7 5 -27 8 -45 7 -92 -2 -133 1 -153 15 -18 12 -44 14 -115 11
-51 -3 -96 -9 -102 -15 -5 -5 -16 -7 -24 -4 -7 3 -23 -3 -33 -12 -11 -10 -20
-15 -20 -11 0 4 -9 2 -20 -4 -14 -8 -20 -8 -20 0 0 7 -17 -2 -37 -18 -29 -23
-47 -29 -75 -27 -21 1 -38 -2 -38 -8 0 -5 -12 -6 -27 -2 -16 4 -34 7 -40 6 -7
0 -20 -2 -28 -3 -14 -1 -20 -23 -16 -55 1 -8 -11 -14 -29 -14 -30 -1 -48 -4
-52 -9 -2 -1 -15 -3 -30 -4 -18 0 -44 -17 -75 -47 -52 -50 -137 -98 -167 -93
-11 1 -38 -10 -61 -26 -23 -16 -57 -30 -76 -32 -26 -2 -34 -8 -34 -23 0 -14
-7 -20 -22 -20 -12 0 -59 -25 -104 -55 -45 -30 -88 -55 -96 -56 -8 -2 -25 -12
-37 -23 -12 -12 -27 -21 -32 -21 -5 0 -33 -18 -63 -40 -29 -22 -57 -38 -61
-35 -4 3 -10 -2 -14 -10 -3 -9 -18 -15 -35 -15 -18 0 -40 -11 -61 -30 -18 -16
-44 -31 -59 -32 -40 -2 -45 -3 -61 -13 -8 -5 -30 -11 -49 -12 -19 -1 -37 -6
-40 -10 -4 -4 -23 -23 -43 -42 -31 -28 -40 -32 -52 -22 -12 10 -20 10 -38 -3
-12 -9 -32 -16 -43 -16 -12 0 -30 -6 -40 -14 -19 -13 -44 -8 -125 27 -34 15
-43 15 -59 3 -12 -9 -13 -7 -8 7 7 19 -17 25 -28 7 -4 -6 -10 -8 -15 -5 -5 3
-11 -4 -15 -15 -3 -11 -13 -20 -21 -21 -8 0 -33 -1 -56 -1 -24 0 -48 -4 -53
-9 -6 -4 -27 -4 -46 0 -19 4 -53 7 -75 5 -111 -10 -287 -8 -291 2 -2 7 -21 14
-42 18 -20 3 -55 19 -76 36 -22 16 -44 30 -49 30 -5 0 -17 7 -26 15 -19 17
-44 24 -101 29 -20 2 -43 7 -50 12 -8 5 -25 10 -39 12 -14 2 -40 15 -57 28
-18 14 -33 22 -33 18 0 -3 -7 -1 -15 6 -9 7 -18 10 -22 7 -3 -4 -11 0 -17 9
-7 8 -31 17 -54 19 -24 1 -46 5 -49 9 -4 3 -19 6 -34 6 -15 0 -40 5 -56 11
-15 6 -50 13 -78 15 -79 7 -92 9 -107 21 -7 6 -20 11 -28 12 -47 4 -110 27
-110 41 0 4 -26 20 -57 36 -64 32 -93 57 -93 78 0 8 -5 18 -10 21 -25 15 -58
85 -73 152 -9 39 -32 102 -51 141 -20 38 -36 79 -36 90 0 11 -5 33 -11 49 -7
15 -13 47 -15 71 -3 49 -30 127 -56 161 -14 18 -15 27 -7 37 6 8 8 14 3 14 -5
0 -9 18 -8 40 0 22 -3 40 -8 40 -4 0 -11 12 -14 28 -4 15 -10 32 -14 37 -5 6
-9 33 -11 60 -1 28 -8 60 -15 72 -8 12 -14 37 -14 56 0 18 -6 42 -14 52 -8 11
-12 24 -9 30 2 7 -1 32 -7 56 -6 24 -12 50 -12 57 -1 6 -6 12 -11 12 -5 0 -7
7 -4 15 4 8 2 17 -3 20 -5 3 -7 20 -3 37 5 23 3 29 -6 24 -8 -5 -11 -3 -10 5
2 8 -5 28 -14 46 -9 17 -20 49 -23 70 -3 21 -10 39 -14 41 -5 2 -7 9 -4 17 3
7 1 16 -5 20 -6 3 -11 14 -11 23 0 10 -8 29 -17 42 -10 13 -17 32 -18 41 0 32
-123 185 -244 305 -68 68 -127 121 -131 119 -7 -4 -55 28 -70 45 -3 3 -21 12
-40 20 -19 8 -51 26 -70 42 -19 15 -43 28 -53 28 -10 0 -20 7 -23 15 -4 8 -12
15 -20 15 -8 0 -14 7 -14 15 0 23 -19 18 -31 -9z"/>
</g>
</svg>
